<?xml version="1.0" encoding="UTF-8"?>
<svg width="512" height="512" viewBox="21.6 21.6 156.8 156.8" xmlns="http://www.w3.org/2000/svg">
  <defs>
    <linearGradient id="grad-fill-tJaVvAhJcsnATU631JxlR" x1="2.220446049250313e-16" y1="1" x2="0.9999999999999998" y2="0">
      <stop offset="0" stop-color="#007aa5" stop-opacity="1" />
      <stop offset="0.9" stop-color="#56b947" stop-opacity="1" />
    </linearGradient>
  </defs>
  <!-- Background -->
  <rect
    x="23.6"
    y="23.6"
    width="152.8"
    height="152.8"
    rx="40"
    ry="40"
    fill="url(#grad-fill-tJaVvAhJcsnATU631JxlR)"
    stroke="none"
    stroke-width="0.5"
  />
  <!-- C Letter Arc -->
  <path
    d="M134.92,55.57l-3.79,-3.17l-1.35,-0.97l-1.36,-0.89l-1.33,-0.79l-1.34,-0.74l-1.35,-0.67l-1.33,-0.62l-1.34,-0.58l-1.35,-0.54l-1.36,-0.49l-1.36,-0.47l-1.35,-0.42l-1.38,-0.39l-1.37,-0.35l-1.37,-0.33l-1.39,-0.29l-1.4,-0.26l-1.4,-0.23l-1.41,-0.19l-1.41,-0.16l-1.41,-0.12l-1.42,-0.1l-1.44,-0.05l-1.44,-0.02l-1.45,0.01l-1.45,0.06l-1.43,0.09l-1.47,0.14l-1.46,0.17l-1.45,0.22l-1.45,0.27l-1.47,0.31l-1.46,0.36l-1.43,0.4l-1.38,0.44l-1.38,0.47l-1.36,0.51l-1.35,0.54l-1.33,0.59l-1.33,0.63l-1.3,0.65l-1.29,0.7l-1.27,0.74l-1.25,0.78l-1.22,0.81l-1.21,0.85l-1.17,0.87l-1.16,0.92l-1.13,0.95l-1.08,0.97l-1.07,1.02l-1.04,1.04l-1,1.07l-0.97,1.09l-0.94,1.13l-0.91,1.14l-0.87,1.17l-0.84,1.19l-0.8,1.21l-0.77,1.23l-0.74,1.25l-0.69,1.26l-0.68,1.31l-0.63,1.29l-0.59,1.3l-0.56,1.31l-0.52,1.33l-0.49,1.35l-0.47,1.37l-0.42,1.36l-0.39,1.37l-0.36,1.37l-0.32,1.37l-0.3,1.39l-0.26,1.38l-0.23,1.39l-0.19,1.37l-0.17,1.39l-0.14,1.4l-0.1,1.39l-0.08,1.41l-0.05,1.37l-0.02,1.39l0.01,1.4l0.03,1.39l0.07,1.39l0.1,1.44l0.13,1.39l0.16,1.39l0.2,1.43l0.23,1.4l0.27,1.4l0.31,1.42l0.33,1.38l0.38,1.39l0.42,1.4l0.45,1.38l0.49,1.37l0.53,1.36l0.57,1.34l0.61,1.33l0.64,1.3l0.67,1.29l0.72,1.27l0.74,1.25l0.8,1.25l0.82,1.21l0.85,1.18l0.88,1.15l0.94,1.16l0.93,1.09l0.97,1.07l1.02,1.07l1.02,1.01l1.06,0.99l1.09,0.97l1.08,0.92l1.15,0.91l1.13,0.86l1.19,0.85l1.16,0.8l1.23,0.79l1.2,0.73l1.25,0.72l1.23,0.67l1.28,0.66l1.26,0.62l1.31,0.59l1.28,0.55l1.33,0.54l1.31,0.48l1.35,0.47l1.34,0.44l1.34,0.4l1.38,0.38l1.4,0.34l1.4,0.31l1.41,0.27l1.42,0.24l1.47,0.2l1.43,0.16l1.45,0.12l1.47,0.08l1.49,0.04l1.44,-0.01l1.48,-0.05l1.48,-0.09l1.47,-0.14l1.47,-0.18l1.46,-0.22l1.45,-0.27l1.43,-0.31l1.43,-0.35l1.43,-0.39l1.4,-0.43l1.37,-0.47l1.38,-0.51l1.35,-0.54l1.32,-0.58l1.32,-0.62l1.28,-0.63l1.27,-0.68l1.25,-0.71l1.22,-0.72l1.21,-0.77l1.17,-0.77l1.17,-0.82l1.14,-0.83l1.12,-0.86l3.56,-2.88c2.57503,-2.09115 2.96889,-5.87314 0.88,-8.45l-4.08,-5.03c-2.09115,-2.57503 -5.87314,-2.96889 -8.45,-0.88l-3.34,2.7l-0.8,0.6l-0.8,0.59l-0.8,0.55l-0.83,0.56l-0.82,0.51l-0.84,0.51l-0.85,0.48l-0.84,0.44l-0.88,0.44l-0.85,0.4l-0.88,0.38l-0.88,0.36l-0.88,0.32l-0.9,0.31l-0.89,0.27l-0.89,0.25l-0.91,0.22l-0.91,0.2l-0.92,0.17l-0.91,0.14l-0.92,0.11l-0.92,0.08l-0.92,0.06l-0.92,0.03l-0.96,0.01l-0.91,-0.03l-0.94,-0.05l-0.94,-0.08l-0.95,-0.1l-0.92,-0.13l-0.95,-0.16l-0.94,-0.18l-0.95,-0.21l-0.94,-0.23l-0.94,-0.25l-0.96,-0.29l-0.94,-0.3l-0.92,-0.32l-0.94,-0.36l-0.9,-0.36l-0.93,-0.4l-0.88,-0.4l-0.9,-0.43l-0.85,-0.44l-0.88,-0.48l-0.83,-0.48l-0.85,-0.52l-0.79,-0.51l-0.82,-0.56l-0.76,-0.55l-0.79,-0.6l-0.73,-0.58l-0.75,-0.63l-0.71,-0.63l-0.69,-0.65l-0.69,-0.68l-0.63,-0.67l-0.65,-0.71l-0.63,-0.73l-0.57,-0.71l-0.58,-0.76l-0.56,-0.78l-0.52,-0.77l-0.5,-0.78l-0.48,-0.81l-0.47,-0.83l-0.44,-0.83l-0.42,-0.86l-0.39,-0.86l-0.36,-0.87l-0.35,-0.88l-0.32,-0.89l-0.29,-0.9l-0.27,-0.9l-0.26,-0.94l-0.23,-0.95l-0.2,-0.93l-0.18,-0.95l-0.16,-0.97l-0.14,-0.95l-0.11,-1l-0.1,-1l-0.06,-0.96l-0.05,-1.01l-0.03,-1.01v-1l0.01,-1.01l0.04,-1.03l0.06,-1l0.07,-1l0.1,-0.99l0.12,-1l0.14,-1.01l0.17,-0.98l0.18,-0.97l0.2,-0.97l0.23,-0.96l0.25,-0.96l0.27,-0.94l0.29,-0.94l0.31,-0.9l0.33,-0.91l0.36,-0.9l0.38,-0.9l0.4,-0.89l0.42,-0.87l0.43,-0.82l0.47,-0.85l0.48,-0.82l0.51,-0.81l0.52,-0.78l0.54,-0.78l0.57,-0.76l0.59,-0.74l0.6,-0.71l0.62,-0.71l0.65,-0.68l0.65,-0.66l0.67,-0.64l0.71,-0.63l0.71,-0.6l0.72,-0.57l0.76,-0.57l0.75,-0.53l0.78,-0.52l0.8,-0.49l0.8,-0.47l0.83,-0.45l0.84,-0.42l0.84,-0.4l0.87,-0.38l0.88,-0.36l0.89,-0.33l0.89,-0.31l0.91,-0.28l0.88,-0.25l0.88,-0.21l0.88,-0.19l0.91,-0.17l0.93,-0.14l0.92,-0.11l0.93,-0.09l0.96,-0.06l0.96,-0.03l0.95,-0.01l0.96,0.01l0.96,0.04l0.97,0.06l0.99,0.09l0.98,0.11l0.97,0.13l0.97,0.16l0.95,0.18l0.97,0.2l0.97,0.23l0.96,0.25l0.92,0.26l0.95,0.29l0.91,0.31l0.9,0.33l0.88,0.35l0.87,0.38l0.85,0.39l0.8,0.4l0.76,0.42l0.73,0.44l0.66,0.42l0.6,0.44l3,2.53c1.21408,1.03575 2.79026,1.54611 4.38102,1.41855c1.59076,-0.12756 3.06546,-0.88256 4.09898,-2.09855l4.2,-4.92c1.03575,-1.21408 1.54611,-2.79026 1.41855,-4.38102c-0.12756,-1.59076 -0.88256,-3.06546 -2.09855,-4.09898z"
    fill="#ffffff"
    stroke="none"
    stroke-width="18.5"
    stroke-linecap="roundedSquare"
    stroke-linejoin="round"
    fill-rule="evenodd"
  />
  <!-- Checkmark -->
  <path
    d="M 94 101.57 L 108.64 116.54 L 144.85 79.99"
    fill="none"
    stroke="#80d22f"
    stroke-width="12.4"
    stroke-linecap="round"
    stroke-linejoin="round"
  />
</svg>
